<svg xmlns="http://www.w3.org/2000/svg" width="810" viewBox="0 0 810 1440" height="1440" version="1.0"><defs><clipPath id="a"><path d="M 403 1139 L 506.960938 1139 L 506.960938 1301.527344 L 403 1301.527344 Z M 403 1139"/></clipPath><clipPath id="b"><path d="M 300.710938 1079.527344 L 506.960938 1079.527344 L 506.960938 1199 L 300.710938 1199 Z M 300.710938 1079.527344"/></clipPath><clipPath id="c"><path d="M 300.710938 1139 L 404 1139 L 404 1301.527344 L 300.710938 1301.527344 Z M 300.710938 1139"/></clipPath><clipPath id="d"><path d="M 357.371094 210 L 450.371094 210 L 450.371094 264 L 357.371094 264 Z M 357.371094 210"/></clipPath><clipPath id="e"><path d="M 357.371094 236 L 404 236 L 404 311 L 357.371094 311 Z M 357.371094 236"/></clipPath><clipPath id="f"><path d="M 403 236 L 450.371094 236 L 450.371094 311 L 403 311 Z M 403 236"/></clipPath><clipPath id="g"><path d="M 403 239 L 450.371094 239 L 450.371094 272 L 403 272 Z M 403 239"/></clipPath><clipPath id="h"><path d="M 403 245 L 450.371094 245 L 450.371094 277 L 403 277 Z M 403 245"/></clipPath><clipPath id="i"><path d="M 403 251 L 450.371094 251 L 450.371094 282 L 403 282 Z M 403 251"/></clipPath><clipPath id="j"><path d="M 403 256 L 450.371094 256 L 450.371094 287 L 403 287 Z M 403 256"/></clipPath><clipPath id="k"><path d="M 403 262 L 450.371094 262 L 450.371094 293 L 403 293 Z M 403 262"/></clipPath><clipPath id="l"><path d="M 403 268 L 450.371094 268 L 450.371094 298 L 403 298 Z M 403 268"/></clipPath><clipPath id="m"><path d="M 403 274 L 450.371094 274 L 450.371094 303 L 403 303 Z M 403 274"/></clipPath><clipPath id="n"><path d="M 403 280 L 450.371094 280 L 450.371094 308 L 403 308 Z M 403 280"/></clipPath><clipPath id="o"><path d="M 357.371094 151 L 450.371094 151 L 450.371094 205 L 357.371094 205 Z M 357.371094 151"/></clipPath><clipPath id="p"><path d="M 357.371094 177 L 404 177 L 404 252 L 357.371094 252 Z M 357.371094 177"/></clipPath><clipPath id="q"><path d="M 403 177 L 450.371094 177 L 450.371094 252 L 403 252 Z M 403 177"/></clipPath><clipPath id="r"><path d="M 403 180 L 450.371094 180 L 450.371094 213 L 403 213 Z M 403 180"/></clipPath><clipPath id="s"><path d="M 403 186 L 450.371094 186 L 450.371094 218 L 403 218 Z M 403 186"/></clipPath><clipPath id="t"><path d="M 403 192 L 450.371094 192 L 450.371094 223 L 403 223 Z M 403 192"/></clipPath><clipPath id="u"><path d="M 403 197 L 450.371094 197 L 450.371094 228 L 403 228 Z M 403 197"/></clipPath><clipPath id="v"><path d="M 403 203 L 450.371094 203 L 450.371094 234 L 403 234 Z M 403 203"/></clipPath><clipPath id="w"><path d="M 403 209 L 450.371094 209 L 450.371094 239 L 403 239 Z M 403 209"/></clipPath><clipPath id="x"><path d="M 403 215 L 450.371094 215 L 450.371094 244 L 403 244 Z M 403 215"/></clipPath><clipPath id="y"><path d="M 403 221 L 450.371094 221 L 450.371094 249 L 403 249 Z M 403 221"/></clipPath><clipPath id="z"><path d="M 357.371094 91 L 450.371094 91 L 450.371094 146 L 357.371094 146 Z M 357.371094 91"/></clipPath><clipPath id="A"><path d="M 357.371094 118 L 404 118 L 404 193 L 357.371094 193 Z M 357.371094 118"/></clipPath><clipPath id="B"><path d="M 403 118 L 450.371094 118 L 450.371094 193 L 403 193 Z M 403 118"/></clipPath><clipPath id="C"><path d="M 403 121 L 450.371094 121 L 450.371094 154 L 403 154 Z M 403 121"/></clipPath><clipPath id="D"><path d="M 403 127 L 450.371094 127 L 450.371094 159 L 403 159 Z M 403 127"/></clipPath><clipPath id="E"><path d="M 403 132 L 450.371094 132 L 450.371094 164 L 403 164 Z M 403 132"/></clipPath><clipPath id="F"><path d="M 403 138 L 450.371094 138 L 450.371094 169 L 403 169 Z M 403 138"/></clipPath><clipPath id="G"><path d="M 403 144 L 450.371094 144 L 450.371094 174 L 403 174 Z M 403 144"/></clipPath><clipPath id="H"><path d="M 403 150 L 450.371094 150 L 450.371094 180 L 403 180 Z M 403 150"/></clipPath><clipPath id="I"><path d="M 403 156 L 450.371094 156 L 450.371094 185 L 403 185 Z M 403 156"/></clipPath><clipPath id="J"><path d="M 403 162 L 450.371094 162 L 450.371094 190 L 403 190 Z M 403 162"/></clipPath><clipPath id="K"><path d="M 357.371094 32 L 450.371094 32 L 450.371094 87 L 357.371094 87 Z M 357.371094 32"/></clipPath><clipPath id="L"><path d="M 357.371094 59 L 404 59 L 404 133 L 357.371094 133 Z M 357.371094 59"/></clipPath><clipPath id="M"><path d="M 403 59 L 450.371094 59 L 450.371094 133 L 403 133 Z M 403 59"/></clipPath><clipPath id="N"><path d="M 403 62 L 450.371094 62 L 450.371094 95 L 403 95 Z M 403 62"/></clipPath><clipPath id="O"><path d="M 403 68 L 450.371094 68 L 450.371094 100 L 403 100 Z M 403 68"/></clipPath><clipPath id="P"><path d="M 403 73 L 450.371094 73 L 450.371094 105 L 403 105 Z M 403 73"/></clipPath><clipPath id="Q"><path d="M 403 79 L 450.371094 79 L 450.371094 110 L 403 110 Z M 403 79"/></clipPath><clipPath id="R"><path d="M 403 85 L 450.371094 85 L 450.371094 115 L 403 115 Z M 403 85"/></clipPath><clipPath id="S"><path d="M 403 91 L 450.371094 91 L 450.371094 121 L 403 121 Z M 403 91"/></clipPath><clipPath id="T"><path d="M 403 97 L 450.371094 97 L 450.371094 126 L 403 126 Z M 403 97"/></clipPath><clipPath id="U"><path d="M 403 103 L 450.371094 103 L 450.371094 131 L 403 131 Z M 403 103"/></clipPath><clipPath id="V"><path d="M 357.371094 0 L 450.371094 0 L 450.371094 28 L 357.371094 28 Z M 357.371094 0"/></clipPath><clipPath id="W"><path d="M 357.371094 0 L 404 0 L 404 74 L 357.371094 74 Z M 357.371094 0"/></clipPath><clipPath id="X"><path d="M 403 0 L 450.371094 0 L 450.371094 74 L 403 74 Z M 403 0"/></clipPath><clipPath id="Y"><path d="M 403 3 L 450.371094 3 L 450.371094 35 L 403 35 Z M 403 3"/></clipPath><clipPath id="Z"><path d="M 403 8 L 450.371094 8 L 450.371094 41 L 403 41 Z M 403 8"/></clipPath><clipPath id="aa"><path d="M 403 14 L 450.371094 14 L 450.371094 46 L 403 46 Z M 403 14"/></clipPath><clipPath id="ab"><path d="M 403 20 L 450.371094 20 L 450.371094 51 L 403 51 Z M 403 20"/></clipPath><clipPath id="ac"><path d="M 403 26 L 450.371094 26 L 450.371094 56 L 403 56 Z M 403 26"/></clipPath><clipPath id="ad"><path d="M 403 32 L 450.371094 32 L 450.371094 61 L 403 61 Z M 403 32"/></clipPath><clipPath id="ae"><path d="M 403 38 L 450.371094 38 L 450.371094 67 L 403 67 Z M 403 38"/></clipPath><clipPath id="af"><path d="M 403 43 L 450.371094 43 L 450.371094 72 L 403 72 Z M 403 43"/></clipPath><clipPath id="ag"><path d="M 357.371094 0 L 404 0 L 404 15 L 357.371094 15 Z M 357.371094 0"/></clipPath><clipPath id="ah"><path d="M 403 0 L 450.371094 0 L 450.371094 15 L 403 15 Z M 403 0"/></clipPath><clipPath id="ai"><path d="M 403 0 L 450.371094 0 L 450.371094 2 L 403 2 Z M 403 0"/></clipPath><clipPath id="aj"><path d="M 403 0 L 450.371094 0 L 450.371094 8 L 403 8 Z M 403 0"/></clipPath><clipPath id="ak"><path d="M 403 0 L 450.371094 0 L 450.371094 13 L 403 13 Z M 403 0"/></clipPath></defs><path fill="#FFF" d="M-81 -144H891V1584H-81z"/><path fill="#FFF" d="M-81 -144H891V1584H-81z"/><path d="M-81 -144H891V1584H-81z"/><g clip-path="url(#a)"><path fill="#16E8F5" d="M 506.921875 1242.035156 L 403.867188 1301.515625 L 403.867188 1198.496094 L 506.921875 1139.015625 L 506.921875 1242.035156"/></g><g clip-path="url(#b)"><path fill="#FFF100" d="M 506.921875 1139.015625 L 403.867188 1198.496094 L 300.8125 1139.015625 L 403.867188 1079.539062 L 506.921875 1139.015625"/></g><g clip-path="url(#c)"><path fill="#FB3194" d="M 403.867188 1301.515625 L 300.8125 1242.035156 L 300.8125 1139.015625 L 403.867188 1198.496094 L 403.867188 1301.515625"/></g><g clip-path="url(#d)"><path fill="#16E8F5" d="M 450.382812 236.972656 L 403.871094 263.792969 L 357.359375 236.972656 L 403.871094 210.15625 L 450.382812 236.972656"/></g><path d="M 412.691406 215.242188 L 366.175781 242.058594 L 361.117188 239.144531 L 407.636719 212.324219 L 412.691406 215.242188"/><path d="M 417.890625 218.242188 L 371.378906 245.0625 L 366.960938 242.515625 L 413.476562 215.695312 L 417.890625 218.242188"/><path d="M 423.101562 221.242188 L 376.582031 248.058594 L 372.800781 245.878906 L 419.3125 219.058594 L 423.101562 221.242188"/><path d="M 428.300781 224.246094 L 381.785156 251.0625 L 378.640625 249.242188 L 425.152344 222.425781 L 428.300781 224.246094"/><path d="M 433.503906 227.242188 L 386.984375 254.0625 L 384.476562 252.609375 L 430.992188 225.796875 L 433.503906 227.242188"/><path d="M 438.707031 230.246094 L 392.195312 257.058594 L 390.316406 255.980469 L 436.832031 229.160156 L 438.707031 230.246094"/><path d="M 443.910156 233.242188 L 397.394531 260.0625 L 396.15625 259.34375 L 442.667969 232.523438 L 443.910156 233.242188"/><path d="M 449.113281 236.238281 L 402.597656 263.058594 L 401.996094 262.707031 L 448.507812 235.894531 L 449.113281 236.238281"/><g clip-path="url(#e)"><path fill="#FFF021" d="M 403.871094 310.242188 L 357.359375 283.429688 L 357.359375 236.972656 L 403.871094 263.792969 L 403.871094 310.242188"/></g><path d="M 361.304688 285.703125 L 358.609375 284.152344 L 358.609375 237.699219 L 361.304688 239.253906 L 361.304688 285.703125"/><path d="M 368.203125 289.679688 L 364.941406 287.800781 L 364.941406 241.347656 L 368.203125 243.226562 L 368.203125 289.679688"/><path d="M 375.101562 293.652344 L 371.273438 291.453125 L 371.273438 244.996094 L 375.101562 247.207031 L 375.101562 293.652344"/><path d="M 381.992188 297.632812 L 377.601562 295.101562 L 377.601562 248.648438 L 381.992188 251.179688 L 381.992188 297.632812"/><path d="M 388.890625 301.605469 L 383.933594 298.75 L 383.933594 252.300781 L 388.890625 255.15625 L 388.890625 301.605469"/><path d="M 395.78125 305.585938 L 390.261719 302.398438 L 390.261719 255.953125 L 395.78125 259.128906 L 395.78125 305.585938"/><path d="M 402.679688 309.558594 L 396.59375 306.050781 L 396.59375 259.601562 L 402.679688 263.109375 L 402.679688 309.558594"/><g clip-path="url(#f)"><path fill="#FB3194" d="M 450.382812 283.429688 L 403.871094 310.242188 L 403.871094 263.792969 L 450.382812 236.972656 L 450.382812 283.429688"/></g><g clip-path="url(#g)"><path d="M 450.382812 244.542969 L 403.871094 271.363281 L 403.871094 266.308594 L 450.382812 239.488281 L 450.382812 244.542969"/></g><g clip-path="url(#h)"><path d="M 450.382812 249.738281 L 403.871094 276.554688 L 403.871094 272.140625 L 450.382812 245.320312 L 450.382812 249.738281"/></g><g clip-path="url(#i)"><path d="M 450.382812 254.933594 L 403.871094 281.75 L 403.871094 277.96875 L 450.382812 251.152344 L 450.382812 254.933594"/></g><g clip-path="url(#j)"><path d="M 450.382812 260.128906 L 403.871094 286.945312 L 403.871094 283.800781 L 450.382812 256.980469 L 450.382812 260.128906"/></g><g clip-path="url(#k)"><path d="M 450.382812 265.324219 L 403.871094 292.140625 L 403.871094 289.632812 L 450.382812 262.816406 L 450.382812 265.324219"/></g><g clip-path="url(#l)"><path d="M 450.382812 270.523438 L 403.871094 297.335938 L 403.871094 295.460938 L 450.382812 268.648438 L 450.382812 270.523438"/></g><g clip-path="url(#m)"><path d="M 450.382812 275.710938 L 403.871094 302.53125 L 403.871094 301.292969 L 450.382812 274.480469 L 450.382812 275.710938"/></g><g clip-path="url(#n)"><path d="M 450.382812 280.914062 L 403.871094 307.726562 L 403.871094 307.128906 L 450.382812 280.308594 L 450.382812 280.914062"/></g><g clip-path="url(#o)"><path fill="#16E8F5" d="M 450.382812 177.882812 L 403.871094 204.703125 L 357.359375 177.882812 L 403.871094 151.0625 L 450.382812 177.882812"/></g><path d="M 412.691406 156.148438 L 366.175781 182.96875 L 361.117188 180.054688 L 407.636719 153.234375 L 412.691406 156.148438"/><path d="M 417.890625 159.152344 L 371.378906 185.964844 L 366.960938 183.417969 L 413.476562 156.605469 L 417.890625 159.152344"/><path d="M 423.101562 162.148438 L 376.582031 188.96875 L 372.800781 186.789062 L 419.3125 159.96875 L 423.101562 162.148438"/><path d="M 428.300781 165.148438 L 381.785156 191.96875 L 378.640625 190.152344 L 425.152344 163.332031 L 428.300781 165.148438"/><path d="M 433.503906 168.152344 L 386.984375 194.96875 L 384.476562 193.519531 L 430.992188 166.703125 L 433.503906 168.152344"/><path d="M 438.707031 171.148438 L 392.195312 197.96875 L 390.316406 196.886719 L 436.832031 170.070312 L 438.707031 171.148438"/><path d="M 443.910156 174.152344 L 397.394531 200.96875 L 396.15625 200.253906 L 442.667969 173.433594 L 443.910156 174.152344"/><path d="M 449.113281 177.148438 L 402.597656 203.96875 L 401.996094 203.617188 L 448.507812 176.804688 L 449.113281 177.148438"/><g clip-path="url(#p)"><path fill="#FFF021" d="M 403.871094 251.152344 L 357.359375 224.335938 L 357.359375 177.882812 L 403.871094 204.703125 L 403.871094 251.152344"/></g><path d="M 361.304688 226.613281 L 358.609375 225.0625 L 358.609375 178.605469 L 361.304688 180.164062 L 361.304688 226.613281"/><path d="M 368.203125 230.589844 L 364.941406 228.703125 L 364.941406 182.257812 L 368.203125 184.136719 L 368.203125 230.589844"/><path d="M 375.101562 234.5625 L 371.273438 232.359375 L 371.273438 185.90625 L 375.101562 188.113281 L 375.101562 234.5625"/><path d="M 381.992188 238.535156 L 377.601562 236.011719 L 377.601562 189.554688 L 381.992188 192.085938 L 381.992188 238.535156"/><path d="M 388.890625 242.515625 L 383.933594 239.660156 L 383.933594 193.207031 L 388.890625 196.066406 L 388.890625 242.515625"/><path d="M 395.78125 246.492188 L 390.261719 243.308594 L 390.261719 196.855469 L 395.78125 200.039062 L 395.78125 246.492188"/><path d="M 402.679688 250.464844 L 396.59375 246.957031 L 396.59375 200.511719 L 402.679688 204.015625 L 402.679688 250.464844"/><g clip-path="url(#q)"><path fill="#FB3194" d="M 450.382812 224.335938 L 403.871094 251.152344 L 403.871094 204.703125 L 450.382812 177.882812 L 450.382812 224.335938"/></g><g clip-path="url(#r)"><path d="M 450.382812 185.449219 L 403.871094 212.265625 L 403.871094 207.21875 L 450.382812 180.398438 L 450.382812 185.449219"/></g><g clip-path="url(#s)"><path d="M 450.382812 190.644531 L 403.871094 217.464844 L 403.871094 213.046875 L 450.382812 186.230469 L 450.382812 190.644531"/></g><g clip-path="url(#t)"><path d="M 450.382812 195.839844 L 403.871094 222.660156 L 403.871094 218.878906 L 450.382812 192.058594 L 450.382812 195.839844"/></g><g clip-path="url(#u)"><path d="M 450.382812 201.035156 L 403.871094 227.855469 L 403.871094 224.710938 L 450.382812 197.890625 L 450.382812 201.035156"/></g><g clip-path="url(#v)"><path d="M 450.382812 206.230469 L 403.871094 233.050781 L 403.871094 230.539062 L 450.382812 203.722656 L 450.382812 206.230469"/></g><g clip-path="url(#w)"><path d="M 450.382812 211.425781 L 403.871094 238.246094 L 403.871094 236.371094 L 450.382812 209.558594 L 450.382812 211.425781"/></g><g clip-path="url(#x)"><path d="M 450.382812 216.628906 L 403.871094 243.441406 L 403.871094 242.203125 L 450.382812 215.382812 L 450.382812 216.628906"/></g><g clip-path="url(#y)"><path d="M 450.382812 221.820312 L 403.871094 248.636719 L 403.871094 248.03125 L 450.382812 221.21875 L 450.382812 221.820312"/></g><g clip-path="url(#z)"><path fill="#16E8F5" d="M 450.382812 118.792969 L 403.871094 145.613281 L 357.359375 118.792969 L 403.871094 91.972656 L 450.382812 118.792969"/></g><path d="M 412.691406 97.058594 L 366.175781 123.878906 L 361.117188 120.960938 L 407.636719 94.144531 L 412.691406 97.058594"/><path d="M 417.890625 100.0625 L 371.378906 126.875 L 366.960938 124.328125 L 413.476562 97.511719 L 417.890625 100.0625"/><path d="M 423.101562 103.058594 L 376.582031 129.878906 L 372.800781 127.695312 L 419.3125 100.878906 L 423.101562 103.058594"/><path d="M 428.300781 106.054688 L 381.785156 132.875 L 378.640625 131.0625 L 425.152344 104.242188 L 428.300781 106.054688"/><path d="M 433.503906 109.058594 L 386.984375 135.878906 L 384.476562 134.425781 L 430.992188 107.613281 L 433.503906 109.058594"/><path d="M 438.707031 112.058594 L 392.195312 138.875 L 390.316406 137.796875 L 436.832031 110.976562 L 438.707031 112.058594"/><path d="M 443.910156 115.058594 L 397.394531 141.878906 L 396.15625 141.160156 L 442.667969 114.34375 L 443.910156 115.058594"/><path d="M 449.113281 118.058594 L 402.597656 144.878906 L 401.996094 144.527344 L 448.507812 117.707031 L 449.113281 118.058594"/><g clip-path="url(#A)"><path fill="#FFF021" d="M 403.871094 192.058594 L 357.359375 165.242188 L 357.359375 118.792969 L 403.871094 145.613281 L 403.871094 192.058594"/></g><path d="M 361.304688 167.519531 L 358.609375 165.964844 L 358.609375 119.515625 L 361.304688 121.070312 L 361.304688 167.519531"/><path d="M 368.203125 171.492188 L 364.941406 169.613281 L 364.941406 123.164062 L 368.203125 125.042969 L 368.203125 171.492188"/><path d="M 375.101562 175.472656 L 371.273438 173.269531 L 371.273438 126.816406 L 375.101562 129.023438 L 375.101562 175.472656"/><path d="M 381.992188 179.445312 L 377.601562 176.914062 L 377.601562 130.464844 L 381.992188 132.996094 L 381.992188 179.445312"/><path d="M 388.890625 183.421875 L 383.933594 180.570312 L 383.933594 134.113281 L 388.890625 136.976562 L 388.890625 183.421875"/><path d="M 395.78125 187.402344 L 390.261719 184.21875 L 390.261719 137.765625 L 395.78125 140.949219 L 395.78125 187.402344"/><path d="M 402.679688 191.375 L 396.59375 187.867188 L 396.59375 141.414062 L 402.679688 144.925781 L 402.679688 191.375"/><g clip-path="url(#B)"><path fill="#FB3194" d="M 450.382812 165.242188 L 403.871094 192.058594 L 403.871094 145.613281 L 450.382812 118.792969 L 450.382812 165.242188"/></g><g clip-path="url(#C)"><path d="M 450.382812 126.359375 L 403.871094 153.171875 L 403.871094 148.125 L 450.382812 121.308594 L 450.382812 126.359375"/></g><g clip-path="url(#D)"><path d="M 450.382812 131.554688 L 403.871094 158.367188 L 403.871094 153.957031 L 450.382812 127.136719 L 450.382812 131.554688"/></g><g clip-path="url(#E)"><path d="M 450.382812 136.75 L 403.871094 163.570312 L 403.871094 159.789062 L 450.382812 132.96875 L 450.382812 136.75"/></g><g clip-path="url(#F)"><path d="M 450.382812 141.945312 L 403.871094 168.765625 L 403.871094 165.617188 L 450.382812 138.800781 L 450.382812 141.945312"/></g><g clip-path="url(#G)"><path d="M 450.382812 147.140625 L 403.871094 173.960938 L 403.871094 171.449219 L 450.382812 144.628906 L 450.382812 147.140625"/></g><g clip-path="url(#H)"><path d="M 450.382812 152.335938 L 403.871094 179.15625 L 403.871094 177.28125 L 450.382812 150.460938 L 450.382812 152.335938"/></g><g clip-path="url(#I)"><path d="M 450.382812 157.53125 L 403.871094 184.351562 L 403.871094 183.109375 L 450.382812 156.292969 L 450.382812 157.53125"/></g><g clip-path="url(#J)"><path d="M 450.382812 162.730469 L 403.871094 189.542969 L 403.871094 188.941406 L 450.382812 162.121094 L 450.382812 162.730469"/></g><g clip-path="url(#K)"><path fill="#16E8F5" d="M 450.382812 59.699219 L 403.871094 86.519531 L 357.359375 59.699219 L 403.871094 32.882812 L 450.382812 59.699219"/></g><path d="M 412.691406 37.96875 L 366.175781 64.785156 L 361.117188 61.871094 L 407.636719 35.050781 L 412.691406 37.96875"/><path d="M 417.890625 40.96875 L 371.378906 67.785156 L 366.960938 65.234375 L 413.476562 38.417969 L 417.890625 40.96875"/><path d="M 423.101562 43.96875 L 376.582031 70.785156 L 372.800781 68.601562 L 419.3125 41.785156 L 423.101562 43.96875"/><path d="M 428.300781 46.964844 L 381.785156 73.785156 L 378.640625 71.972656 L 425.152344 45.152344 L 428.300781 46.964844"/><path d="M 433.503906 49.96875 L 386.984375 76.78125 L 384.476562 75.335938 L 430.992188 48.515625 L 433.503906 49.96875"/><path d="M 438.707031 52.964844 L 392.195312 79.785156 L 390.316406 78.699219 L 436.832031 51.886719 L 438.707031 52.964844"/><path d="M 443.910156 55.964844 L 397.394531 82.78125 L 396.15625 82.070312 L 442.667969 55.25 L 443.910156 55.964844"/><path d="M 449.113281 58.964844 L 402.597656 85.785156 L 401.996094 85.433594 L 448.507812 58.617188 L 449.113281 58.964844"/><g clip-path="url(#L)"><path fill="#FFF021" d="M 403.871094 132.96875 L 357.359375 106.148438 L 357.359375 59.699219 L 403.871094 86.519531 L 403.871094 132.96875"/></g><path d="M 361.304688 108.429688 L 358.609375 106.875 L 358.609375 60.425781 L 361.304688 61.976562 L 361.304688 108.429688"/><path d="M 368.203125 112.402344 L 364.941406 110.523438 L 364.941406 64.074219 L 368.203125 65.953125 L 368.203125 112.402344"/><path d="M 375.101562 116.382812 L 371.273438 114.171875 L 371.273438 67.722656 L 375.101562 69.925781 L 375.101562 116.382812"/><path d="M 381.992188 120.355469 L 377.601562 117.820312 L 377.601562 71.375 L 381.992188 73.90625 L 381.992188 120.355469"/><path d="M 388.890625 124.332031 L 383.933594 121.476562 L 383.933594 75.023438 L 388.890625 77.878906 L 388.890625 124.332031"/><path d="M 395.78125 128.304688 L 390.261719 125.121094 L 390.261719 78.671875 L 395.78125 81.855469 L 395.78125 128.304688"/><path d="M 402.679688 132.285156 L 396.59375 128.777344 L 396.59375 82.324219 L 402.679688 85.835938 L 402.679688 132.285156"/><g clip-path="url(#M)"><path fill="#FB3194" d="M 450.382812 106.148438 L 403.871094 132.96875 L 403.871094 86.519531 L 450.382812 59.699219 L 450.382812 106.148438"/></g><g clip-path="url(#N)"><path d="M 450.382812 67.269531 L 403.871094 94.082031 L 403.871094 89.035156 L 450.382812 62.214844 L 450.382812 67.269531"/></g><g clip-path="url(#O)"><path d="M 450.382812 72.464844 L 403.871094 99.277344 L 403.871094 94.867188 L 450.382812 68.046875 L 450.382812 72.464844"/></g><g clip-path="url(#P)"><path d="M 450.382812 77.660156 L 403.871094 104.472656 L 403.871094 100.695312 L 450.382812 73.878906 L 450.382812 77.660156"/></g><g clip-path="url(#Q)"><path d="M 450.382812 82.855469 L 403.871094 109.671875 L 403.871094 106.527344 L 450.382812 79.707031 L 450.382812 82.855469"/></g><g clip-path="url(#R)"><path d="M 450.382812 88.050781 L 403.871094 114.867188 L 403.871094 112.359375 L 450.382812 85.539062 L 450.382812 88.050781"/></g><g clip-path="url(#S)"><path d="M 450.382812 93.246094 L 403.871094 120.0625 L 403.871094 118.1875 L 450.382812 91.371094 L 450.382812 93.246094"/></g><g clip-path="url(#T)"><path d="M 450.382812 98.4375 L 403.871094 125.257812 L 403.871094 124.019531 L 450.382812 97.199219 L 450.382812 98.4375"/></g><g clip-path="url(#U)"><path d="M 450.382812 103.632812 L 403.871094 130.453125 L 403.871094 129.851562 L 450.382812 103.03125 L 450.382812 103.632812"/></g><g clip-path="url(#V)"><path fill="#16E8F5" d="M 450.382812 0.609375 L 403.871094 27.429688 L 357.359375 0.609375 L 403.871094 -26.210938 L 450.382812 0.609375"/></g><path d="M 412.691406 -21.125 L 366.175781 5.695312 L 361.117188 2.78125 L 407.636719 -24.039062 L 412.691406 -21.125"/><path d="M 417.890625 -18.125 L 371.378906 8.691406 L 366.960938 6.144531 L 413.476562 -20.675781 L 417.890625 -18.125"/><path d="M 423.101562 -15.125 L 376.582031 11.695312 L 372.800781 9.507812 L 419.3125 -17.304688 L 423.101562 -15.125"/><path d="M 428.300781 -12.125 L 381.785156 14.695312 L 378.640625 12.878906 L 425.152344 -13.941406 L 428.300781 -12.125"/><path d="M 433.503906 -9.121094 L 386.984375 17.691406 L 384.476562 16.246094 L 430.992188 -10.574219 L 433.503906 -9.121094"/><path d="M 438.707031 -6.125 L 392.195312 20.695312 L 390.316406 19.609375 L 436.832031 -7.203125 L 438.707031 -6.125"/><path d="M 443.910156 -3.128906 L 397.394531 23.691406 L 396.15625 22.980469 L 442.667969 -3.839844 L 443.910156 -3.128906"/><path d="M 449.113281 -0.125 L 402.597656 26.695312 L 401.996094 26.34375 L 448.507812 -0.476562 L 449.113281 -0.125"/><g clip-path="url(#W)"><path fill="#FFF021" d="M 403.871094 73.878906 L 357.359375 47.058594 L 357.359375 0.609375 L 403.871094 27.429688 L 403.871094 73.878906"/></g><path d="M 361.304688 49.339844 L 358.609375 47.78125 L 358.609375 1.332031 L 361.304688 2.882812 L 361.304688 49.339844"/><path d="M 368.203125 53.3125 L 364.941406 51.433594 L 364.941406 4.984375 L 368.203125 6.863281 L 368.203125 53.3125"/><path d="M 375.101562 57.289062 L 371.273438 55.082031 L 371.273438 8.632812 L 375.101562 10.835938 L 375.101562 57.289062"/><path d="M 381.992188 61.261719 L 377.601562 58.730469 L 377.601562 12.28125 L 381.992188 14.8125 L 381.992188 61.261719"/><path d="M 388.890625 65.242188 L 383.933594 62.378906 L 383.933594 15.933594 L 388.890625 18.789062 L 388.890625 65.242188"/><path d="M 395.78125 69.214844 L 390.261719 66.03125 L 390.261719 19.582031 L 395.78125 22.765625 L 395.78125 69.214844"/><path d="M 402.679688 73.191406 L 396.59375 69.6875 L 396.59375 23.230469 L 402.679688 26.738281 L 402.679688 73.191406"/><g clip-path="url(#X)"><path fill="#FB3194" d="M 450.382812 47.058594 L 403.871094 73.878906 L 403.871094 27.429688 L 450.382812 0.609375 L 450.382812 47.058594"/></g><g clip-path="url(#Y)"><path d="M 450.382812 8.171875 L 403.871094 34.992188 L 403.871094 29.945312 L 450.382812 3.125 L 450.382812 8.171875"/></g><g clip-path="url(#Z)"><path d="M 450.382812 13.367188 L 403.871094 40.1875 L 403.871094 35.773438 L 450.382812 8.957031 L 450.382812 13.367188"/></g><g clip-path="url(#aa)"><path d="M 450.382812 18.566406 L 403.871094 45.382812 L 403.871094 41.605469 L 450.382812 14.785156 L 450.382812 18.566406"/></g><g clip-path="url(#ab)"><path d="M 450.382812 23.761719 L 403.871094 50.578125 L 403.871094 47.4375 L 450.382812 20.617188 L 450.382812 23.761719"/></g><g clip-path="url(#ac)"><path d="M 450.382812 28.957031 L 403.871094 55.777344 L 403.871094 53.265625 L 450.382812 26.449219 L 450.382812 28.957031"/></g><g clip-path="url(#ad)"><path d="M 450.382812 34.152344 L 403.871094 60.972656 L 403.871094 59.097656 L 450.382812 32.277344 L 450.382812 34.152344"/></g><g clip-path="url(#ae)"><path d="M 450.382812 39.347656 L 403.871094 66.167969 L 403.871094 64.929688 L 450.382812 38.109375 L 450.382812 39.347656"/></g><g clip-path="url(#af)"><path d="M 450.382812 44.542969 L 403.871094 71.363281 L 403.871094 70.757812 L 450.382812 43.941406 L 450.382812 44.542969"/></g><g clip-path="url(#ag)"><path fill="#FFF021" d="M 403.871094 14.785156 L 357.359375 -12.03125 L 357.359375 -58.480469 L 403.871094 -31.667969 L 403.871094 14.785156"/></g><path d="M 381.992188 2.171875 L 377.601562 -0.359375 L 377.601562 -46.808594 L 381.992188 -44.277344 L 381.992188 2.171875"/><path d="M 388.890625 6.148438 L 383.933594 3.289062 L 383.933594 -43.160156 L 388.890625 -40.304688 L 388.890625 6.148438"/><path d="M 395.78125 10.125 L 390.261719 6.9375 L 390.261719 -39.507812 L 395.78125 -36.324219 L 395.78125 10.125"/><path d="M 402.679688 14.101562 L 396.59375 10.589844 L 396.59375 -35.859375 L 402.679688 -32.351562 L 402.679688 14.101562"/><g clip-path="url(#ah)"><path fill="#FB3194" d="M 450.382812 -12.03125 L 403.871094 14.785156 L 403.871094 -31.667969 L 450.382812 -58.480469 L 450.382812 -12.03125"/></g><g clip-path="url(#ai)"><path d="M 450.382812 -24.9375 L 403.871094 1.882812 L 403.871094 0.0078125 L 450.382812 -26.8125 L 450.382812 -24.9375"/></g><g clip-path="url(#aj)"><path d="M 450.382812 -19.742188 L 403.871094 7.078125 L 403.871094 5.835938 L 450.382812 -20.980469 L 450.382812 -19.742188"/></g><g clip-path="url(#ak)"><path d="M 450.382812 -14.546875 L 403.871094 12.269531 L 403.871094 11.667969 L 450.382812 -15.152344 L 450.382812 -14.546875"/></g><g fill="#16E8F5"><g><g><path d="M 20.878906 -25.742188 C 20.878906 -30.09375 18.519531 -32.410156 14.214844 -32.410156 L 9.027344 -32.410156 C 4.675781 -32.410156 2.316406 -30.09375 2.316406 -25.742188 L 2.316406 -6.667969 C 2.316406 -2.316406 4.675781 0 9.027344 0 L 14.214844 0 C 18.519531 0 20.878906 -2.316406 20.878906 -6.667969 L 20.878906 -11.667969 C 20.878906 -12.128906 20.601562 -12.40625 20.140625 -12.40625 L 15.789062 -12.40625 C 15.277344 -12.40625 15.046875 -12.128906 15.046875 -11.667969 L 15.046875 -7.730469 C 15.046875 -6.480469 14.398438 -5.878906 13.195312 -5.878906 L 10.230469 -5.878906 C 9.027344 -5.878906 8.378906 -6.480469 8.378906 -7.730469 L 8.378906 -24.539062 C 8.378906 -25.742188 8.980469 -26.390625 10.230469 -26.390625 L 13.195312 -26.390625 C 14.398438 -26.390625 15.046875 -25.742188 15.046875 -24.539062 L 15.046875 -20.742188 C 15.046875 -20.277344 15.277344 -20 15.789062 -20 L 20.140625 -20 C 20.601562 -20 20.878906 -20.277344 20.878906 -20.742188 Z M 20.878906 -25.742188" transform="translate(250.319 386.727)"/></g></g></g><g fill="#16E8F5"><g><g><path d="M 2.316406 -6.667969 C 2.316406 -2.316406 4.628906 0 8.980469 0 L 14.167969 0 C 18.519531 0 20.832031 -2.316406 20.832031 -6.667969 L 20.832031 -25.742188 C 20.832031 -30.09375 18.519531 -32.410156 14.167969 -32.410156 L 8.980469 -32.410156 C 4.628906 -32.410156 2.316406 -30.09375 2.316406 -25.742188 Z M 10.183594 -5.972656 C 8.980469 -5.972656 8.332031 -6.574219 8.332031 -7.824219 L 8.332031 -24.582031 C 8.332031 -25.789062 8.980469 -26.4375 10.183594 -26.4375 L 13.148438 -26.4375 C 14.351562 -26.4375 15 -25.789062 15 -24.582031 L 15 -7.824219 C 15 -6.574219 14.351562 -5.972656 13.148438 -5.972656 Z M 10.183594 -5.972656" transform="translate(286.057 386.727)"/></g></g></g><g fill="#16E8F5"><g><g><path d="M 21.667969 -32.410156 C 21.113281 -32.410156 20.789062 -32.128906 20.648438 -31.621094 L 15.507812 -10.972656 L 10.371094 -31.621094 C 10.230469 -32.128906 9.90625 -32.410156 9.351562 -32.410156 L 3.242188 -32.410156 C 2.640625 -32.410156 2.316406 -32.085938 2.316406 -31.480469 L 2.316406 -0.925781 C 2.316406 -0.324219 2.640625 0 3.242188 0 L 7.5 0 C 8.101562 0 8.425781 -0.324219 8.425781 -0.925781 L 8.425781 -19.121094 L 8.75 -19.121094 L 13.101562 -0.785156 C 13.242188 -0.277344 13.566406 0 14.121094 0 L 16.851562 0 C 17.40625 0 17.730469 -0.277344 17.871094 -0.785156 L 22.222656 -19.121094 L 22.546875 -19.121094 L 22.546875 -0.925781 C 22.546875 -0.324219 22.871094 0 23.472656 0 L 27.777344 0 C 28.378906 0 28.703125 -0.324219 28.703125 -0.925781 L 28.703125 -31.480469 C 28.703125 -32.085938 28.378906 -32.410156 27.777344 -32.410156 Z M 21.667969 -32.410156" transform="translate(321.75 386.727)"/></g></g></g><g fill="#16E8F5"><g><g><path d="M 20.789062 -31.667969 C 20.789062 -32.128906 20.601562 -32.410156 20.046875 -32.410156 L 3.007812 -32.410156 C 2.59375 -32.410156 2.316406 -32.128906 2.316406 -31.667969 L 2.316406 -0.742188 C 2.316406 -0.277344 2.59375 0 3.007812 0 L 20.046875 0 C 20.601562 0 20.789062 -0.277344 20.789062 -0.742188 L 20.789062 -5.371094 C 20.789062 -5.878906 20.601562 -6.109375 20.046875 -6.109375 L 8.613281 -6.109375 L 8.613281 -12.964844 L 17.316406 -12.964844 C 17.777344 -12.964844 18.054688 -13.242188 18.054688 -13.75 L 18.054688 -18.332031 C 18.054688 -18.84375 17.777344 -19.121094 17.316406 -19.121094 L 8.613281 -19.121094 L 8.613281 -26.25 L 20.046875 -26.25 C 20.601562 -26.25 20.789062 -26.574219 20.789062 -27.039062 Z M 20.789062 -31.667969" transform="translate(365.31 386.727)"/></g></g></g><g fill="#16E8F5"><g><g><path d="M 2.316406 -0.742188 C 2.316406 -0.277344 2.59375 0 3.054688 0 L 7.59375 0.046875 C 8.101562 0.046875 8.332031 -0.230469 8.332031 -0.695312 L 8.332031 -9.953125 L 14.167969 -10 C 18.519531 -10.046875 20.832031 -12.363281 20.832031 -16.667969 L 20.832031 -25.742188 C 20.832031 -30.09375 18.519531 -32.410156 14.167969 -32.410156 L 3.054688 -32.410156 C 2.59375 -32.410156 2.316406 -32.128906 2.316406 -31.667969 Z M 8.332031 -15.925781 L 8.332031 -26.390625 L 12.964844 -26.4375 C 14.214844 -26.4375 14.816406 -25.789062 14.816406 -24.582031 L 14.816406 -17.824219 C 14.816406 -16.667969 14.214844 -15.972656 12.964844 -15.972656 Z M 8.332031 -15.925781" transform="translate(425.077 386.727)"/></g></g></g><g fill="#16E8F5"><g><g><path d="M 8.613281 -6.109375 L 17.777344 -6.109375 C 18.289062 -6.109375 18.519531 -5.832031 18.519531 -5.371094 L 18.519531 -0.742188 C 18.519531 -0.230469 18.289062 0 17.777344 0 L 3.054688 0 C 2.59375 0 2.316406 -0.230469 2.316406 -0.742188 L 2.316406 -31.667969 C 2.316406 -32.128906 2.59375 -32.410156 3.054688 -32.410156 L 7.871094 -32.410156 C 8.378906 -32.410156 8.613281 -32.128906 8.613281 -31.667969 Z M 8.613281 -6.109375" transform="translate(460.77 386.727)"/></g></g></g><g fill="#16E8F5"><g><g><path d="M 24.167969 0 C 24.722656 0 24.953125 -0.277344 24.816406 -0.785156 L 17.128906 -31.761719 C 17.039062 -32.222656 16.757812 -32.410156 16.34375 -32.410156 L 9.90625 -32.410156 C 9.492188 -32.410156 9.214844 -32.222656 9.121094 -31.761719 L 1.433594 -0.785156 C 1.296875 -0.277344 1.527344 0 2.035156 0 L 6.574219 0 C 6.992188 0 7.222656 -0.230469 7.316406 -0.648438 L 8.75 -6.480469 L 17.453125 -6.480469 L 18.9375 -0.648438 C 19.027344 -0.230469 19.257812 0 19.675781 0 Z M 16.019531 -11.851562 L 10.183594 -11.851562 L 13.101562 -24.445312 Z M 16.019531 -11.851562" transform="translate(494.147 386.727)"/></g></g></g><g fill="#16E8F5"><g><g><path d="M 18.425781 -32.410156 C 17.871094 -32.410156 17.546875 -32.128906 17.363281 -31.667969 L 12.175781 -19.769531 L 6.992188 -31.667969 C 6.804688 -32.128906 6.480469 -32.410156 5.925781 -32.410156 L 1.296875 -32.410156 C 0.601562 -32.410156 0.277344 -31.945312 0.554688 -31.34375 L 9.027344 -12.128906 L 9.027344 -0.925781 C 9.027344 -0.324219 9.351562 0 9.953125 0 L 14.398438 0 C 15 0 15.324219 -0.324219 15.324219 -0.925781 L 15.324219 -12.128906 L 23.796875 -31.34375 C 24.074219 -31.945312 23.75 -32.410156 23.054688 -32.410156 Z M 18.425781 -32.410156" transform="translate(532.94 386.727)"/></g></g></g><g fill="#F00"><g><g><path d="M 7.085938 -20.414062 C 7.085938 -7.085938 14.175781 0 27.5 0 L 43.378906 0 C 56.5625 0 63.789062 -7.085938 63.789062 -20.414062 L 63.789062 -52.734375 C 63.789062 -54.292969 62.941406 -55.003906 61.523438 -55.003906 L 38.558594 -55.003906 C 37 -55.003906 36.289062 -54.292969 36.289062 -52.734375 L 36.289062 -38.558594 C 36.289062 -37.140625 37 -36.289062 38.558594 -36.289062 L 45.929688 -36.289062 L 45.929688 -23.957031 C 45.929688 -20.128906 43.945312 -18.285156 40.257812 -18.285156 L 31.1875 -18.285156 C 27.5 -18.285156 25.515625 -20.128906 25.515625 -23.957031 L 25.515625 -75.273438 C 25.515625 -78.960938 27.359375 -80.945312 31.1875 -80.945312 L 40.257812 -80.945312 C 43.945312 -80.945312 45.929688 -78.960938 45.929688 -75.273438 L 45.929688 -68.328125 C 45.929688 -66.910156 46.636719 -66.058594 48.199219 -66.058594 L 61.523438 -66.058594 C 62.941406 -66.058594 63.789062 -66.910156 63.789062 -68.328125 L 63.789062 -78.816406 C 63.789062 -92.140625 56.5625 -99.230469 43.378906 -99.230469 L 27.5 -99.230469 C 14.175781 -99.230469 7.085938 -92.140625 7.085938 -78.816406 Z M 7.085938 -20.414062" transform="translate(222.298 623.926)"/></g></g></g><g fill="#F00"><g><g><path d="M 73.996094 0 C 75.699219 0 76.40625 -0.851562 75.980469 -2.410156 L 52.449219 -97.246094 C 52.167969 -98.664062 51.316406 -99.230469 50.039062 -99.230469 L 30.335938 -99.230469 C 29.058594 -99.230469 28.210938 -98.664062 27.925781 -97.246094 L 4.394531 -2.410156 C 3.96875 -0.851562 4.679688 0 6.238281 0 L 20.128906 0 C 21.40625 0 22.113281 -0.707031 22.398438 -1.984375 L 26.792969 -19.847656 L 53.441406 -19.847656 L 57.980469 -1.984375 C 58.261719 -0.707031 58.972656 0 60.246094 0 Z M 49.046875 -36.289062 L 31.1875 -36.289062 L 40.117188 -74.847656 Z M 49.046875 -36.289062" transform="translate(305.359 623.926)"/></g></g></g><g fill="#F00"><g><g><path d="M 66.34375 -99.230469 C 64.640625 -99.230469 63.648438 -98.378906 63.222656 -96.820312 L 47.488281 -33.597656 L 31.753906 -96.820312 C 31.328125 -98.378906 30.335938 -99.230469 28.636719 -99.230469 L 9.921875 -99.230469 C 8.082031 -99.230469 7.085938 -98.238281 7.085938 -96.394531 L 7.085938 -2.835938 C 7.085938 -0.992188 8.082031 0 9.921875 0 L 22.964844 0 C 24.808594 0 25.800781 -0.992188 25.800781 -2.835938 L 25.800781 -58.546875 L 26.792969 -58.546875 L 40.117188 -2.410156 C 40.542969 -0.851562 41.535156 0 43.234375 0 L 51.601562 0 C 53.300781 0 54.292969 -0.851562 54.71875 -2.410156 L 68.042969 -58.546875 L 69.035156 -58.546875 L 69.035156 -2.835938 C 69.035156 -0.992188 70.027344 0 71.871094 0 L 85.054688 0 C 86.898438 0 87.890625 -0.992188 87.890625 -2.835938 L 87.890625 -96.394531 C 87.890625 -98.238281 86.898438 -99.230469 85.054688 -99.230469 Z M 66.34375 -99.230469" transform="translate(397.916 623.926)"/></g></g></g><g fill="#F00"><g><g><path d="M 63.648438 -96.960938 C 63.648438 -98.378906 63.082031 -99.230469 61.382812 -99.230469 L 9.214844 -99.230469 C 7.9375 -99.230469 7.085938 -98.378906 7.085938 -96.960938 L 7.085938 -2.269531 C 7.085938 -0.851562 7.9375 0 9.214844 0 L 61.382812 0 C 63.082031 0 63.648438 -0.851562 63.648438 -2.269531 L 63.648438 -16.445312 C 63.648438 -18.003906 63.082031 -18.710938 61.382812 -18.710938 L 26.367188 -18.710938 L 26.367188 -39.691406 L 53.015625 -39.691406 C 54.433594 -39.691406 55.285156 -40.542969 55.285156 -42.101562 L 55.285156 -56.136719 C 55.285156 -57.695312 54.433594 -58.546875 53.015625 -58.546875 L 26.367188 -58.546875 L 26.367188 -80.375 L 61.382812 -80.375 C 63.082031 -80.375 63.648438 -81.367188 63.648438 -82.785156 Z M 63.648438 -96.960938" transform="translate(505.072 623.926)"/></g></g></g><g fill="#0FF"><g><g><path d="M 7.085938 -20.414062 C 7.085938 -7.085938 14.175781 0 27.5 0 L 43.378906 0 C 56.5625 0 63.789062 -7.085938 63.789062 -20.414062 L 63.789062 -52.734375 C 63.789062 -54.292969 62.941406 -55.003906 61.523438 -55.003906 L 38.558594 -55.003906 C 37 -55.003906 36.289062 -54.292969 36.289062 -52.734375 L 36.289062 -38.558594 C 36.289062 -37.140625 37 -36.289062 38.558594 -36.289062 L 45.929688 -36.289062 L 45.929688 -23.957031 C 45.929688 -20.128906 43.945312 -18.285156 40.257812 -18.285156 L 31.1875 -18.285156 C 27.5 -18.285156 25.515625 -20.128906 25.515625 -23.957031 L 25.515625 -75.273438 C 25.515625 -78.960938 27.359375 -80.945312 31.1875 -80.945312 L 40.257812 -80.945312 C 43.945312 -80.945312 45.929688 -78.960938 45.929688 -75.273438 L 45.929688 -68.328125 C 45.929688 -66.910156 46.636719 -66.058594 48.199219 -66.058594 L 61.523438 -66.058594 C 62.941406 -66.058594 63.789062 -66.910156 63.789062 -68.328125 L 63.789062 -78.816406 C 63.789062 -92.140625 56.5625 -99.230469 43.378906 -99.230469 L 27.5 -99.230469 C 14.175781 -99.230469 7.085938 -92.140625 7.085938 -78.816406 Z M 7.085938 -20.414062" transform="translate(234.156 637.095)"/></g></g></g><g fill="#0FF"><g><g><path d="M 73.996094 0 C 75.699219 0 76.40625 -0.851562 75.980469 -2.410156 L 52.449219 -97.246094 C 52.167969 -98.664062 51.316406 -99.230469 50.039062 -99.230469 L 30.335938 -99.230469 C 29.058594 -99.230469 28.210938 -98.664062 27.925781 -97.246094 L 4.394531 -2.410156 C 3.96875 -0.851562 4.679688 0 6.238281 0 L 20.128906 0 C 21.40625 0 22.113281 -0.707031 22.398438 -1.984375 L 26.792969 -19.847656 L 53.441406 -19.847656 L 57.980469 -1.984375 C 58.261719 -0.707031 58.972656 0 60.246094 0 Z M 49.046875 -36.289062 L 31.1875 -36.289062 L 40.117188 -74.847656 Z M 49.046875 -36.289062" transform="translate(317.216 637.095)"/></g></g></g><g fill="#0FF"><g><g><path d="M 66.34375 -99.230469 C 64.640625 -99.230469 63.648438 -98.378906 63.222656 -96.820312 L 47.488281 -33.597656 L 31.753906 -96.820312 C 31.328125 -98.378906 30.335938 -99.230469 28.636719 -99.230469 L 9.921875 -99.230469 C 8.082031 -99.230469 7.085938 -98.238281 7.085938 -96.394531 L 7.085938 -2.835938 C 7.085938 -0.992188 8.082031 0 9.921875 0 L 22.964844 0 C 24.808594 0 25.800781 -0.992188 25.800781 -2.835938 L 25.800781 -58.546875 L 26.792969 -58.546875 L 40.117188 -2.410156 C 40.542969 -0.851562 41.535156 0 43.234375 0 L 51.601562 0 C 53.300781 0 54.292969 -0.851562 54.71875 -2.410156 L 68.042969 -58.546875 L 69.035156 -58.546875 L 69.035156 -2.835938 C 69.035156 -0.992188 70.027344 0 71.871094 0 L 85.054688 0 C 86.898438 0 87.890625 -0.992188 87.890625 -2.835938 L 87.890625 -96.394531 C 87.890625 -98.238281 86.898438 -99.230469 85.054688 -99.230469 Z M 66.34375 -99.230469" transform="translate(409.774 637.095)"/></g></g></g><g fill="#0FF"><g><g><path d="M 63.648438 -96.960938 C 63.648438 -98.378906 63.082031 -99.230469 61.382812 -99.230469 L 9.214844 -99.230469 C 7.9375 -99.230469 7.085938 -98.378906 7.085938 -96.960938 L 7.085938 -2.269531 C 7.085938 -0.851562 7.9375 0 9.214844 0 L 61.382812 0 C 63.082031 0 63.648438 -0.851562 63.648438 -2.269531 L 63.648438 -16.445312 C 63.648438 -18.003906 63.082031 -18.710938 61.382812 -18.710938 L 26.367188 -18.710938 L 26.367188 -39.691406 L 53.015625 -39.691406 C 54.433594 -39.691406 55.285156 -40.542969 55.285156 -42.101562 L 55.285156 -56.136719 C 55.285156 -57.695312 54.433594 -58.546875 53.015625 -58.546875 L 26.367188 -58.546875 L 26.367188 -80.375 L 61.382812 -80.375 C 63.082031 -80.375 63.648438 -81.367188 63.648438 -82.785156 Z M 63.648438 -96.960938" transform="translate(516.93 637.095)"/></g></g></g><g fill="#FFF"><g><g><path d="M 7.085938 -20.414062 C 7.085938 -7.085938 14.175781 0 27.5 0 L 43.378906 0 C 56.5625 0 63.789062 -7.085938 63.789062 -20.414062 L 63.789062 -52.734375 C 63.789062 -54.292969 62.941406 -55.003906 61.523438 -55.003906 L 38.558594 -55.003906 C 37 -55.003906 36.289062 -54.292969 36.289062 -52.734375 L 36.289062 -38.558594 C 36.289062 -37.140625 37 -36.289062 38.558594 -36.289062 L 45.929688 -36.289062 L 45.929688 -23.957031 C 45.929688 -20.128906 43.945312 -18.285156 40.257812 -18.285156 L 31.1875 -18.285156 C 27.5 -18.285156 25.515625 -20.128906 25.515625 -23.957031 L 25.515625 -75.273438 C 25.515625 -78.960938 27.359375 -80.945312 31.1875 -80.945312 L 40.257812 -80.945312 C 43.945312 -80.945312 45.929688 -78.960938 45.929688 -75.273438 L 45.929688 -68.328125 C 45.929688 -66.910156 46.636719 -66.058594 48.199219 -66.058594 L 61.523438 -66.058594 C 62.941406 -66.058594 63.789062 -66.910156 63.789062 -68.328125 L 63.789062 -78.816406 C 63.789062 -92.140625 56.5625 -99.230469 43.378906 -99.230469 L 27.5 -99.230469 C 14.175781 -99.230469 7.085938 -92.140625 7.085938 -78.816406 Z M 7.085938 -20.414062" transform="translate(228.227 630.51)"/></g></g></g><g fill="#FFF"><g><g><path d="M 73.996094 0 C 75.699219 0 76.40625 -0.851562 75.980469 -2.410156 L 52.449219 -97.246094 C 52.167969 -98.664062 51.316406 -99.230469 50.039062 -99.230469 L 30.335938 -99.230469 C 29.058594 -99.230469 28.210938 -98.664062 27.925781 -97.246094 L 4.394531 -2.410156 C 3.96875 -0.851562 4.679688 0 6.238281 0 L 20.128906 0 C 21.40625 0 22.113281 -0.707031 22.398438 -1.984375 L 26.792969 -19.847656 L 53.441406 -19.847656 L 57.980469 -1.984375 C 58.261719 -0.707031 58.972656 0 60.246094 0 Z M 49.046875 -36.289062 L 31.1875 -36.289062 L 40.117188 -74.847656 Z M 49.046875 -36.289062" transform="translate(311.288 630.51)"/></g></g></g><g fill="#FFF"><g><g><path d="M 66.34375 -99.230469 C 64.640625 -99.230469 63.648438 -98.378906 63.222656 -96.820312 L 47.488281 -33.597656 L 31.753906 -96.820312 C 31.328125 -98.378906 30.335938 -99.230469 28.636719 -99.230469 L 9.921875 -99.230469 C 8.082031 -99.230469 7.085938 -98.238281 7.085938 -96.394531 L 7.085938 -2.835938 C 7.085938 -0.992188 8.082031 0 9.921875 0 L 22.964844 0 C 24.808594 0 25.800781 -0.992188 25.800781 -2.835938 L 25.800781 -58.546875 L 26.792969 -58.546875 L 40.117188 -2.410156 C 40.542969 -0.851562 41.535156 0 43.234375 0 L 51.601562 0 C 53.300781 0 54.292969 -0.851562 54.71875 -2.410156 L 68.042969 -58.546875 L 69.035156 -58.546875 L 69.035156 -2.835938 C 69.035156 -0.992188 70.027344 0 71.871094 0 L 85.054688 0 C 86.898438 0 87.890625 -0.992188 87.890625 -2.835938 L 87.890625 -96.394531 C 87.890625 -98.238281 86.898438 -99.230469 85.054688 -99.230469 Z M 66.34375 -99.230469" transform="translate(403.845 630.51)"/></g></g></g><g fill="#FFF"><g><g><path d="M 63.648438 -96.960938 C 63.648438 -98.378906 63.082031 -99.230469 61.382812 -99.230469 L 9.214844 -99.230469 C 7.9375 -99.230469 7.085938 -98.378906 7.085938 -96.960938 L 7.085938 -2.269531 C 7.085938 -0.851562 7.9375 0 9.214844 0 L 61.382812 0 C 63.082031 0 63.648438 -0.851562 63.648438 -2.269531 L 63.648438 -16.445312 C 63.648438 -18.003906 63.082031 -18.710938 61.382812 -18.710938 L 26.367188 -18.710938 L 26.367188 -39.691406 L 53.015625 -39.691406 C 54.433594 -39.691406 55.285156 -40.542969 55.285156 -42.101562 L 55.285156 -56.136719 C 55.285156 -57.695312 54.433594 -58.546875 53.015625 -58.546875 L 26.367188 -58.546875 L 26.367188 -80.375 L 61.382812 -80.375 C 63.082031 -80.375 63.648438 -81.367188 63.648438 -82.785156 Z M 63.648438 -96.960938" transform="translate(511 630.51)"/></g></g></g><g fill="#FFF"><g><g><path d="M 2.539062 -0.8125 C 2.539062 -0.304688 2.84375 0 3.351562 0 L 8.324219 0.0507812 C 8.882812 0.0507812 9.136719 -0.253906 9.136719 -0.761719 L 9.136719 -10.914062 L 15.53125 -10.964844 C 20.304688 -11.015625 22.839844 -13.550781 22.839844 -18.273438 L 22.839844 -28.222656 C 22.839844 -32.992188 20.304688 -35.53125 15.53125 -35.53125 L 3.351562 -35.53125 C 2.84375 -35.53125 2.539062 -35.226562 2.539062 -34.71875 Z M 9.136719 -17.460938 L 9.136719 -28.929688 L 14.210938 -28.980469 C 15.582031 -28.980469 16.242188 -28.273438 16.242188 -26.953125 L 16.242188 -19.542969 C 16.242188 -18.273438 15.582031 -17.511719 14.210938 -17.511719 Z M 9.136719 -17.460938" transform="translate(331.481 709.962)"/></g></g></g><g fill="#FFF"><g><g><path d="M 26.496094 0 C 27.105469 0 27.359375 -0.304688 27.207031 -0.863281 L 18.78125 -34.820312 C 18.679688 -35.328125 18.375 -35.53125 17.917969 -35.53125 L 10.863281 -35.53125 C 10.40625 -35.53125 10.101562 -35.328125 10 -34.820312 L 1.574219 -0.863281 C 1.421875 -0.304688 1.675781 0 2.234375 0 L 7.207031 0 C 7.664062 0 7.917969 -0.253906 8.019531 -0.710938 L 9.59375 -7.105469 L 19.136719 -7.105469 L 20.757812 -0.710938 C 20.859375 -0.253906 21.113281 0 21.570312 0 Z M 17.5625 -12.992188 L 11.167969 -12.992188 L 14.363281 -26.800781 Z M 17.5625 -12.992188" transform="translate(361.221 709.962)"/></g></g></g><g fill="#FFF"><g><g><path d="M 22.839844 -28.222656 C 22.839844 -32.992188 20.304688 -35.53125 15.53125 -35.53125 L 3.351562 -35.53125 C 2.84375 -35.53125 2.539062 -35.226562 2.539062 -34.71875 L 2.539062 -0.8125 C 2.539062 -0.304688 2.84375 0 3.351562 0 L 8.324219 0 C 8.832031 0 9.136719 -0.304688 9.136719 -0.8125 L 9.136719 -10.710938 L 13.652344 -10.710938 L 16.089844 -0.710938 C 16.191406 -0.253906 16.445312 0 16.953125 0 L 21.925781 0 C 22.484375 0 22.789062 -0.304688 22.636719 -0.914062 L 20 -11.828125 C 21.875 -12.992188 22.839844 -15.074219 22.839844 -18.019531 Z M 9.136719 -17.257812 L 9.136719 -28.980469 L 14.210938 -28.980469 C 15.53125 -28.980469 16.242188 -28.273438 16.242188 -26.953125 L 16.242188 -19.289062 C 16.242188 -17.96875 15.53125 -17.257812 14.210938 -17.257812 Z M 9.136719 -17.257812" transform="translate(394.362 709.962)"/></g></g></g><g fill="#FFF"><g><g><path d="M 21.011719 -35.53125 C 21.570312 -35.53125 21.824219 -35.226562 21.824219 -34.71875 L 21.824219 -29.640625 C 21.824219 -29.132812 21.570312 -28.828125 21.011719 -28.828125 L 15.125 -28.828125 L 15.125 -0.8125 C 15.125 -0.253906 14.871094 0 14.3125 0 L 9.035156 0 C 8.527344 0 8.222656 -0.253906 8.222656 -0.8125 L 8.222656 -28.828125 L 2.335938 -28.828125 C 1.828125 -28.828125 1.523438 -29.132812 1.523438 -29.640625 L 1.523438 -34.71875 C 1.523438 -35.226562 1.828125 -35.53125 2.335938 -35.53125 Z M 21.011719 -35.53125" transform="translate(424.102 709.962)"/></g></g></g><g fill="#FFF"><g><g><path d="M 20.203125 -35.53125 C 19.59375 -35.53125 19.238281 -35.226562 19.035156 -34.71875 L 13.347656 -21.671875 L 7.664062 -34.71875 C 7.460938 -35.226562 7.105469 -35.53125 6.496094 -35.53125 L 1.421875 -35.53125 C 0.660156 -35.53125 0.304688 -35.023438 0.609375 -34.363281 L 9.898438 -13.296875 L 9.898438 -1.015625 C 9.898438 -0.355469 10.253906 0 10.914062 0 L 15.785156 0 C 16.445312 0 16.800781 -0.355469 16.800781 -1.015625 L 16.800781 -13.296875 L 26.089844 -34.363281 C 26.394531 -35.023438 26.039062 -35.53125 25.277344 -35.53125 Z M 20.203125 -35.53125" transform="translate(451.813 709.962)"/></g></g></g><g fill="#FFF100"><g><g><path d="M 24.265625 -23.078125 L 10.21875 -23.078125 L 10.21875 -16.40625 L 23.15625 -16.40625 L 23.15625 -10.625 L 10.21875 -10.625 L 10.21875 0 L 2.890625 0 L 2.890625 -28.84375 L 24.265625 -28.84375 Z M 24.265625 -23.078125" transform="translate(199.804 874.398)"/></g></g></g><g fill="#FFF100"><g><g><path d="M 10.21875 0 L 2.890625 0 L 2.890625 -28.84375 L 10.21875 -28.84375 Z M 10.21875 0" transform="translate(231.28 874.398)"/></g></g></g><g fill="#FFF100"><g><g><path d="M 20.265625 0 L 15.984375 -8.109375 L 10.21875 -8.109375 L 10.21875 0 L 2.890625 0 L 2.890625 -28.84375 L 15.78125 -28.84375 C 19.601562 -28.84375 22.554688 -27.96875 24.640625 -26.21875 C 26.722656 -24.476562 27.765625 -22 27.765625 -18.78125 C 27.765625 -14.332031 26.019531 -11.242188 22.53125 -9.515625 L 28.59375 0 Z M 10.21875 -13.890625 L 15.78125 -13.890625 C 17.375 -13.890625 18.609375 -14.285156 19.484375 -15.078125 C 20.367188 -15.878906 20.8125 -17.035156 20.8125 -18.546875 C 20.8125 -20.023438 20.367188 -21.148438 19.484375 -21.921875 C 18.609375 -22.691406 17.375 -23.078125 15.78125 -23.078125 L 10.21875 -23.078125 Z M 10.21875 -13.890625" transform="translate(250.974 874.398)"/></g></g></g><g fill="#FFF100"><g><g><path d="M 2.890625 -28.84375 L 15.28125 -28.84375 C 19.8125 -28.84375 23.5 -27.507812 26.34375 -24.84375 C 29.1875 -22.175781 30.609375 -18.703125 30.609375 -14.421875 C 30.609375 -10.160156 29.164062 -6.691406 26.28125 -4.015625 C 23.40625 -1.335938 19.644531 0 15 0 L 2.890625 0 Z M 10.21875 -22.984375 L 10.21875 -5.84375 L 15.453125 -5.84375 C 17.703125 -5.84375 19.546875 -6.632812 20.984375 -8.21875 C 22.429688 -9.800781 23.15625 -11.851562 23.15625 -14.375 C 23.15625 -16.90625 22.398438 -18.972656 20.890625 -20.578125 C 19.378906 -22.179688 17.457031 -22.984375 15.125 -22.984375 Z M 10.21875 -22.984375" transform="translate(287.394 874.398)"/></g></g></g><g fill="#FFF100"><g><g><path d="M 22.046875 -5.3125 L 9.4375 -5.3125 L 7.328125 0 L -0.203125 0 L 12.234375 -28.84375 L 19.78125 -28.84375 L 31.9375 0 L 24.109375 0 Z M 19.90625 -10.875 L 15.78125 -21.546875 L 11.578125 -10.875 Z M 19.90625 -10.875" transform="translate(325.586 874.398)"/></g></g></g><g fill="#FFF100"><g><g><path d="M 17.765625 -9.3125 L 17.765625 0 L 10.46875 0 L 10.46875 -9.109375 L -0.203125 -28.84375 L 7.125 -28.84375 L 14.09375 -16.28125 L 20.890625 -28.84375 L 28.21875 -28.84375 Z M 17.765625 -9.3125" transform="translate(363.9 874.398)"/></g></g></g><g fill="#FFF100"><g><g><path d="M 29.5 0 L 23.03125 0 L 9.765625 -17.765625 L 9.765625 0 L 2.890625 0 L 2.890625 -28.84375 L 9.359375 -28.84375 L 22.65625 -11.046875 L 22.65625 -28.84375 L 29.5 -28.84375 Z M 29.5 0" transform="translate(414.66 874.398)"/></g></g></g><g fill="#FFF100"><g><g><path d="M 10.21875 0 L 2.890625 0 L 2.890625 -28.84375 L 10.21875 -28.84375 Z M 10.21875 0" transform="translate(453.633 874.398)"/></g></g></g><g fill="#FFF100"><g><g><path d="M 22.046875 -14.671875 L 28.390625 -14.671875 L 28.390625 -3.421875 C 26.828125 -2.316406 24.9375 -1.414062 22.71875 -0.71875 C 20.507812 -0.0195312 18.40625 0.328125 16.40625 0.328125 C 12.007812 0.328125 8.335938 -1.078125 5.390625 -3.890625 C 2.453125 -6.703125 0.984375 -10.210938 0.984375 -14.421875 C 0.984375 -18.597656 2.492188 -22.085938 5.515625 -24.890625 C 8.535156 -27.691406 12.328125 -29.09375 16.890625 -29.09375 C 19.035156 -29.09375 21.164062 -28.707031 23.28125 -27.9375 C 25.394531 -27.164062 27.191406 -26.117188 28.671875 -24.796875 L 24.5625 -19.8125 C 23.507812 -20.78125 22.296875 -21.546875 20.921875 -22.109375 C 19.554688 -22.671875 18.203125 -22.953125 16.859375 -22.953125 C 14.492188 -22.953125 12.503906 -22.132812 10.890625 -20.5 C 9.285156 -18.863281 8.484375 -16.835938 8.484375 -14.421875 C 8.484375 -11.972656 9.289062 -9.925781 10.90625 -8.28125 C 12.53125 -6.632812 14.539062 -5.8125 16.9375 -5.8125 C 18.46875 -5.8125 20.171875 -6.273438 22.046875 -7.203125 Z M 22.046875 -14.671875" transform="translate(473.327 874.398)"/></g></g></g><g fill="#FFF100"><g><g><path d="M 29.5 0 L 22.171875 0 L 22.171875 -11.203125 L 10.21875 -11.203125 L 10.21875 0 L 2.890625 0 L 2.890625 -28.84375 L 10.21875 -28.84375 L 10.21875 -16.96875 L 22.171875 -16.96875 L 22.171875 -28.84375 L 29.5 -28.84375 Z M 29.5 0" transform="translate(510.53 874.398)"/></g></g></g><g fill="#FFF100"><g><g><path d="M 24.921875 -22.953125 L 16.234375 -22.953125 L 16.234375 0 L 8.90625 0 L 8.90625 -22.953125 L 0.28125 -22.953125 L 0.28125 -28.890625 L 24.921875 -28.890625 Z M 24.921875 -22.953125" transform="translate(549.504 874.398)"/></g></g></g><g fill="#FFF100"><g><g><path d="M 13.96875 -29.171875 C 18.28125 -29.171875 22.070312 -28.097656 25.34375 -25.953125 L 22.578125 -20.234375 C 21.066406 -21.109375 19.445312 -21.828125 17.71875 -22.390625 C 15.988281 -22.953125 14.53125 -23.234375 13.34375 -23.234375 C 11.226562 -23.234375 10.171875 -22.535156 10.171875 -21.140625 C 10.171875 -20.234375 10.691406 -19.503906 11.734375 -18.953125 C 12.785156 -18.398438 14.054688 -17.925781 15.546875 -17.53125 C 17.046875 -17.132812 18.546875 -16.65625 20.046875 -16.09375 C 21.546875 -15.53125 22.816406 -14.613281 23.859375 -13.34375 C 24.898438 -12.082031 25.421875 -10.488281 25.421875 -8.5625 C 25.421875 -5.789062 24.332031 -3.628906 22.15625 -2.078125 C 19.988281 -0.523438 17.234375 0.25 13.890625 0.25 C 11.492188 0.25 9.128906 -0.160156 6.796875 -0.984375 C 4.460938 -1.804688 2.429688 -2.9375 0.703125 -4.375 L 3.546875 -10.015625 C 5.003906 -8.742188 6.71875 -7.703125 8.6875 -6.890625 C 10.664062 -6.085938 12.425781 -5.6875 13.96875 -5.6875 C 15.144531 -5.6875 16.0625 -5.898438 16.71875 -6.328125 C 17.382812 -6.753906 17.71875 -7.378906 17.71875 -8.203125 C 17.71875 -8.992188 17.335938 -9.65625 16.578125 -10.1875 C 15.828125 -10.726562 14.890625 -11.128906 13.765625 -11.390625 C 12.640625 -11.648438 11.414062 -12 10.09375 -12.4375 C 8.769531 -12.882812 7.546875 -13.367188 6.421875 -13.890625 C 5.296875 -14.410156 4.351562 -15.238281 3.59375 -16.375 C 2.84375 -17.519531 2.46875 -18.890625 2.46875 -20.484375 C 2.46875 -23.117188 3.519531 -25.222656 5.625 -26.796875 C 7.726562 -28.378906 10.507812 -29.171875 13.96875 -29.171875 Z M 13.96875 -29.171875" transform="translate(581.27 874.398)"/></g></g></g><g fill="#FFF100"><g><g><path d="M 8.796875 -18.390625 C 11.515625 -18.390625 13.90625 -17.710938 15.96875 -16.359375 L 14.234375 -12.75 C 13.273438 -13.300781 12.25 -13.753906 11.15625 -14.109375 C 10.070312 -14.460938 9.15625 -14.640625 8.40625 -14.640625 C 7.082031 -14.640625 6.421875 -14.203125 6.421875 -13.328125 C 6.421875 -12.753906 6.75 -12.289062 7.40625 -11.9375 C 8.0625 -11.59375 8.859375 -11.296875 9.796875 -11.046875 C 10.742188 -10.796875 11.6875 -10.492188 12.625 -10.140625 C 13.570312 -9.785156 14.375 -9.207031 15.03125 -8.40625 C 15.6875 -7.613281 16.015625 -6.613281 16.015625 -5.40625 C 16.015625 -3.65625 15.332031 -2.289062 13.96875 -1.3125 C 12.601562 -0.332031 10.863281 0.15625 8.75 0.15625 C 7.25 0.15625 5.757812 -0.101562 4.28125 -0.625 C 2.8125 -1.144531 1.53125 -1.851562 0.4375 -2.75 L 2.234375 -6.3125 C 3.148438 -5.507812 4.226562 -4.851562 5.46875 -4.34375 C 6.71875 -3.832031 7.828125 -3.578125 8.796875 -3.578125 C 9.546875 -3.578125 10.128906 -3.710938 10.546875 -3.984375 C 10.960938 -4.253906 11.171875 -4.648438 11.171875 -5.171875 C 11.171875 -5.671875 10.929688 -6.085938 10.453125 -6.421875 C 9.972656 -6.765625 9.378906 -7.015625 8.671875 -7.171875 C 7.960938 -7.335938 7.191406 -7.5625 6.359375 -7.84375 C 5.523438 -8.125 4.753906 -8.425781 4.046875 -8.75 C 3.335938 -9.082031 2.742188 -9.609375 2.265625 -10.328125 C 1.796875 -11.046875 1.5625 -11.90625 1.5625 -12.90625 C 1.5625 -14.570312 2.222656 -15.898438 3.546875 -16.890625 C 4.867188 -17.890625 6.617188 -18.390625 8.796875 -18.390625 Z M 8.796875 -18.390625" transform="translate(312.69 1370.378)"/></g></g></g><g fill="#FFF100"><g><g><path d="M 22.25 0 L 17.5 0 L 14.125 -12.5625 L 10.703125 0 L 5.921875 0 L -0.03125 -18.171875 L 4.90625 -18.171875 L 8.46875 -4.796875 L 11.953125 -18.171875 L 16.46875 -18.171875 L 20.015625 -4.796875 L 23.53125 -18.171875 L 28.25 -18.171875 Z M 22.25 0" transform="translate(336.65 1370.378)"/></g></g></g><g fill="#FFF100"><g><g><path d="M 6.4375 0 L 1.8125 0 L 1.8125 -18.171875 L 6.4375 -18.171875 Z M 6.4375 0" transform="translate(371.955 1370.378)"/></g></g></g><g fill="#FFF100"><g><g><path d="M 1.8125 -18.171875 L 9.734375 -18.171875 C 12.054688 -18.171875 13.859375 -17.617188 15.140625 -16.515625 C 16.421875 -15.421875 17.0625 -13.863281 17.0625 -11.84375 C 17.0625 -9.707031 16.421875 -8.050781 15.140625 -6.875 C 13.859375 -5.695312 12.054688 -5.109375 9.734375 -5.109375 L 6.4375 -5.109375 L 6.4375 0 L 1.8125 0 Z M 6.4375 -14.546875 L 6.4375 -8.75 L 9.5 -8.75 C 10.519531 -8.75 11.304688 -9 11.859375 -9.5 C 12.421875 -10 12.703125 -10.726562 12.703125 -11.6875 C 12.703125 -12.625 12.421875 -13.332031 11.859375 -13.8125 C 11.304688 -14.300781 10.519531 -14.546875 9.5 -14.546875 Z M 6.4375 -14.546875" transform="translate(387.455 1370.378)"/></g></g></g><g fill="#FFF100"><g><g><path d="M 16.046875 -14.546875 L 6.4375 -14.546875 L 6.4375 -10.9375 L 15.109375 -10.9375 L 15.109375 -7.296875 L 6.4375 -7.296875 L 6.4375 -3.640625 L 16.328125 -3.640625 L 16.328125 0 L 1.8125 0 L 1.8125 -18.171875 L 16.046875 -18.171875 Z M 16.046875 -14.546875" transform="translate(412.35 1370.378)"/></g></g></g><g fill="#FFF100"><g><g><path d="M 18.171875 -18.171875 L 18.171875 -7.640625 C 18.171875 -5.234375 17.425781 -3.320312 15.9375 -1.90625 C 14.457031 -0.5 12.441406 0.203125 9.890625 0.203125 C 7.328125 0.203125 5.285156 -0.5 3.765625 -1.90625 C 2.253906 -3.320312 1.5 -5.234375 1.5 -7.640625 L 1.5 -18.171875 L 6.125 -18.171875 L 6.125 -7.640625 C 6.125 -6.421875 6.472656 -5.453125 7.171875 -4.734375 C 7.878906 -4.015625 8.796875 -3.65625 9.921875 -3.65625 C 11.023438 -3.65625 11.910156 -4.007812 12.578125 -4.71875 C 13.242188 -5.4375 13.578125 -6.410156 13.578125 -7.640625 L 13.578125 -18.171875 Z M 18.171875 -18.171875" transform="translate(450.358 1370.378)"/></g></g></g><g fill="#FFF100"><g><g><path d="M 1.8125 -18.171875 L 9.734375 -18.171875 C 12.054688 -18.171875 13.859375 -17.617188 15.140625 -16.515625 C 16.421875 -15.421875 17.0625 -13.863281 17.0625 -11.84375 C 17.0625 -9.707031 16.421875 -8.050781 15.140625 -6.875 C 13.859375 -5.695312 12.054688 -5.109375 9.734375 -5.109375 L 6.4375 -5.109375 L 6.4375 0 L 1.8125 0 Z M 6.4375 -14.546875 L 6.4375 -8.75 L 9.5 -8.75 C 10.519531 -8.75 11.304688 -9 11.859375 -9.5 C 12.421875 -10 12.703125 -10.726562 12.703125 -11.6875 C 12.703125 -12.625 12.421875 -13.332031 11.859375 -13.8125 C 11.304688 -14.300781 10.519531 -14.546875 9.5 -14.546875 Z M 6.4375 -14.546875" transform="translate(477.279 1370.378)"/></g></g></g><g fill="#FFF"><g><g><path d="M 18.289062 -31.859375 C 18.289062 -32.265625 18.042969 -32.511719 17.636719 -32.511719 L 2.683594 -32.511719 C 2.234375 -32.511719 2.03125 -32.265625 2.03125 -31.859375 L 2.03125 -0.648438 C 2.03125 -0.242188 2.234375 0 2.683594 0 L 6.910156 0 C 7.316406 0 7.558594 -0.242188 7.558594 -0.648438 L 7.558594 -13.613281 L 15.199219 -13.613281 C 15.605469 -13.613281 15.847656 -13.816406 15.847656 -14.265625 L 15.847656 -18.328125 C 15.847656 -18.734375 15.605469 -18.976562 15.199219 -18.976562 L 7.558594 -18.976562 L 7.558594 -27.148438 L 17.636719 -27.148438 C 18.042969 -27.148438 18.289062 -27.390625 18.289062 -27.796875 Z M 18.289062 -31.859375" transform="translate(274.953 970.672)"/></g></g></g><g fill="#FFF"><g><g><path d="M 18.734375 -26.660156 C 18.734375 -30.480469 16.703125 -32.511719 12.882812 -32.511719 L 2.683594 -32.511719 C 2.277344 -32.511719 2.03125 -32.265625 2.03125 -31.859375 L 2.03125 -0.648438 C 2.03125 -0.242188 2.277344 0 2.683594 0 L 6.910156 0 C 7.316406 0 7.558594 -0.242188 7.558594 -0.648438 L 7.558594 -10.890625 L 10.363281 -10.890625 L 13.085938 -0.570312 C 13.167969 -0.203125 13.371094 0 13.777344 0 L 18.003906 0 C 18.449219 0 18.695312 -0.242188 18.570312 -0.730469 L 15.769531 -11.378906 C 17.71875 -12.230469 18.734375 -14.019531 18.734375 -16.742188 Z M 7.558594 -16.253906 L 7.558594 -27.148438 L 11.582031 -27.148438 C 12.640625 -27.148438 13.207031 -26.578125 13.207031 -25.519531 L 13.207031 -17.882812 C 13.207031 -16.824219 12.640625 -16.253906 11.582031 -16.253906 Z M 7.558594 -16.253906" transform="translate(299.05 970.672)"/></g></g></g><g fill="#FFF"><g><g><path d="M 18.246094 -31.859375 C 18.246094 -32.265625 18.085938 -32.511719 17.597656 -32.511719 L 2.640625 -32.511719 C 2.277344 -32.511719 2.03125 -32.265625 2.03125 -31.859375 L 2.03125 -0.648438 C 2.03125 -0.242188 2.277344 0 2.640625 0 L 17.597656 0 C 18.085938 0 18.246094 -0.242188 18.246094 -0.648438 L 18.246094 -4.714844 C 18.246094 -5.160156 18.085938 -5.363281 17.597656 -5.363281 L 7.4375 -5.363281 L 7.4375 -13.574219 L 15.199219 -13.574219 C 15.605469 -13.574219 15.847656 -13.816406 15.847656 -14.265625 L 15.847656 -18.289062 C 15.847656 -18.734375 15.605469 -18.976562 15.199219 -18.976562 L 7.4375 -18.976562 L 7.4375 -27.105469 L 17.597656 -27.105469 C 18.085938 -27.105469 18.246094 -27.390625 18.246094 -27.796875 Z M 18.246094 -31.859375" transform="translate(323.592 970.672)"/></g></g></g><g fill="#FFF"><g><g><path d="M 18.246094 -31.859375 C 18.246094 -32.265625 18.085938 -32.511719 17.597656 -32.511719 L 2.640625 -32.511719 C 2.277344 -32.511719 2.03125 -32.265625 2.03125 -31.859375 L 2.03125 -0.648438 C 2.03125 -0.242188 2.277344 0 2.640625 0 L 17.597656 0 C 18.085938 0 18.246094 -0.242188 18.246094 -0.648438 L 18.246094 -4.714844 C 18.246094 -5.160156 18.085938 -5.363281 17.597656 -5.363281 L 7.4375 -5.363281 L 7.4375 -13.574219 L 15.199219 -13.574219 C 15.605469 -13.574219 15.847656 -13.816406 15.847656 -14.265625 L 15.847656 -18.289062 C 15.847656 -18.734375 15.605469 -18.976562 15.199219 -18.976562 L 7.4375 -18.976562 L 7.4375 -27.105469 L 17.597656 -27.105469 C 18.085938 -27.105469 18.246094 -27.390625 18.246094 -27.796875 Z M 18.246094 -31.859375" transform="translate(347.648 970.672)"/></g></g></g><g fill="#FFF"><g><g><path d="M 2.03125 -0.648438 C 2.03125 -0.203125 2.234375 0 2.683594 0 L 12.4375 0 C 16.253906 0 18.289062 -2.03125 18.289062 -5.851562 L 18.289062 -26.617188 C 18.289062 -30.4375 16.253906 -32.511719 12.4375 -32.511719 L 2.683594 -32.511719 C 2.234375 -32.511719 2.03125 -32.265625 2.03125 -31.859375 Z M 7.558594 -5.363281 L 7.558594 -27.148438 L 11.296875 -27.148438 C 12.355469 -27.148438 12.921875 -26.578125 12.921875 -25.480469 L 12.921875 -6.988281 C 12.921875 -5.894531 12.355469 -5.363281 11.296875 -5.363281 Z M 7.558594 -5.363281" transform="translate(385.641 970.672)"/></g></g></g><g fill="#FFF"><g><g><path d="M 18.734375 -26.660156 C 18.734375 -30.480469 16.703125 -32.511719 12.882812 -32.511719 L 2.683594 -32.511719 C 2.277344 -32.511719 2.03125 -32.265625 2.03125 -31.859375 L 2.03125 -0.648438 C 2.03125 -0.242188 2.277344 0 2.683594 0 L 6.910156 0 C 7.316406 0 7.558594 -0.242188 7.558594 -0.648438 L 7.558594 -10.890625 L 10.363281 -10.890625 L 13.085938 -0.570312 C 13.167969 -0.203125 13.371094 0 13.777344 0 L 18.003906 0 C 18.449219 0 18.695312 -0.242188 18.570312 -0.730469 L 15.769531 -11.378906 C 17.71875 -12.230469 18.734375 -14.019531 18.734375 -16.742188 Z M 7.558594 -16.253906 L 7.558594 -27.148438 L 11.582031 -27.148438 C 12.640625 -27.148438 13.207031 -26.578125 13.207031 -25.519531 L 13.207031 -17.882812 C 13.207031 -16.824219 12.640625 -16.253906 11.582031 -16.253906 Z M 7.558594 -16.253906" transform="translate(409.738 970.672)"/></g></g></g><g fill="#FFF"><g><g><path d="M 2.683594 -32.511719 C 2.234375 -32.511719 2.03125 -32.265625 2.03125 -31.859375 L 2.03125 -0.648438 C 2.03125 -0.242188 2.234375 0 2.683594 0 L 6.910156 0 C 7.316406 0 7.558594 -0.242188 7.558594 -0.648438 L 7.558594 -31.859375 C 7.558594 -32.265625 7.316406 -32.511719 6.910156 -32.511719 Z M 2.683594 -32.511719" transform="translate(434.28 970.672)"/></g></g></g><g fill="#FFF"><g><g><path d="M 14.507812 -32.511719 C 14.0625 -32.511719 13.859375 -32.265625 13.859375 -31.859375 L 13.859375 -14.710938 L 13.613281 -14.710938 L 7.4375 -31.984375 C 7.316406 -32.347656 7.070312 -32.511719 6.707031 -32.511719 L 2.683594 -32.511719 C 2.277344 -32.511719 2.03125 -32.265625 2.03125 -31.859375 L 2.03125 -0.648438 C 2.03125 -0.242188 2.277344 0 2.683594 0 L 6.910156 0 C 7.355469 0 7.558594 -0.242188 7.558594 -0.648438 L 7.558594 -17.882812 L 7.761719 -17.882812 L 13.980469 -0.527344 C 14.101562 -0.164062 14.34375 0 14.710938 0 L 18.734375 0 C 19.140625 0 19.386719 -0.242188 19.386719 -0.648438 L 19.386719 -31.859375 C 19.386719 -32.265625 19.140625 -32.511719 18.734375 -32.511719 Z M 14.507812 -32.511719" transform="translate(447.65 970.672)"/></g></g></g><g fill="#FFF"><g><g><path d="M 19.425781 0 C 20.074219 0 20.320312 -0.40625 20.035156 -0.933594 L 12.679688 -17.351562 L 19.589844 -31.535156 C 19.871094 -32.105469 19.628906 -32.511719 19.019531 -32.511719 L 14.753906 -32.511719 C 14.304688 -32.511719 14.019531 -32.308594 13.816406 -31.902344 L 7.558594 -19.101562 L 7.558594 -31.699219 C 7.558594 -32.226562 7.273438 -32.511719 6.746094 -32.511719 L 2.84375 -32.511719 C 2.316406 -32.511719 2.03125 -32.226562 2.03125 -31.699219 L 2.03125 -0.8125 C 2.03125 -0.285156 2.316406 0 2.84375 0 L 6.746094 0 C 7.273438 0 7.558594 -0.285156 7.558594 -0.8125 L 7.558594 -9.792969 L 9.0625 -12.679688 L 14.183594 -0.609375 C 14.34375 -0.203125 14.628906 0 15.117188 0 Z M 19.425781 0" transform="translate(472.843 970.672)"/></g></g></g><g fill="#FFF"><g><g><path d="M 7.882812 -32.511719 C 4.105469 -32.511719 2.03125 -30.480469 2.03125 -26.660156 L 2.03125 -17.070312 C 2.03125 -16.296875 2.398438 -15.808594 3.128906 -15.566406 L 12.761719 -12.394531 L 12.761719 -6.988281 C 12.761719 -5.894531 12.191406 -5.363281 11.136719 -5.363281 L 9.183594 -5.363281 C 8.167969 -5.363281 7.558594 -5.894531 7.558594 -6.988281 L 7.558594 -10.117188 C 7.558594 -10.566406 7.355469 -10.769531 6.910156 -10.769531 L 2.683594 -10.769531 C 2.277344 -10.769531 2.03125 -10.566406 2.03125 -10.117188 L 2.03125 -5.851562 C 2.03125 -2.03125 4.105469 0 7.882812 0 L 12.4375 0 C 16.253906 0 18.289062 -2.03125 18.289062 -5.851562 L 18.289062 -15.238281 C 18.289062 -16.011719 17.921875 -16.457031 17.230469 -16.742188 L 7.558594 -19.914062 L 7.558594 -25.519531 C 7.558594 -26.578125 8.167969 -27.148438 9.183594 -27.148438 L 11.136719 -27.148438 C 12.230469 -27.148438 12.761719 -26.578125 12.761719 -25.519531 L 12.761719 -22.351562 C 12.761719 -21.945312 13.003906 -21.703125 13.410156 -21.703125 L 17.636719 -21.703125 C 18.085938 -21.703125 18.289062 -21.945312 18.289062 -22.351562 L 18.289062 -26.660156 C 18.289062 -30.480469 16.253906 -32.511719 12.4375 -32.511719 Z M 7.882812 -32.511719" transform="translate(498.402 970.672)"/></g></g></g><g fill="#FFF"><g><g><path d="M 2.03125 -12.761719 C 2.03125 -12.230469 2.316406 -11.949219 2.84375 -11.949219 L 9.265625 -11.949219 C 9.792969 -11.949219 10.078125 -12.230469 10.078125 -12.761719 L 10.078125 -16.5 C 10.078125 -17.027344 9.792969 -17.3125 9.265625 -17.3125 L 2.84375 -17.3125 C 2.316406 -17.3125 2.03125 -17.027344 2.03125 -16.5 Z M 2.03125 -12.761719" transform="translate(303.08 1026.504)"/></g></g></g><g fill="#FFF"><g><g><path d="M 2.03125 -5.851562 C 2.03125 -2.03125 4.0625 0 7.882812 0 L 13.25 0 C 17.027344 0 19.101562 -2.03125 19.101562 -5.851562 L 19.101562 -17.148438 C 19.101562 -17.597656 18.855469 -17.800781 18.449219 -17.800781 L 11.621094 -17.800781 C 11.175781 -17.800781 10.972656 -17.597656 10.972656 -17.148438 L 10.972656 -13.085938 C 10.972656 -12.679688 11.175781 -12.4375 11.621094 -12.4375 L 13.734375 -12.4375 L 13.734375 -6.988281 C 13.734375 -5.894531 13.167969 -5.363281 12.109375 -5.363281 L 9.183594 -5.363281 C 8.128906 -5.363281 7.558594 -5.894531 7.558594 -6.988281 L 7.558594 -25.519531 C 7.558594 -26.578125 8.085938 -27.148438 9.183594 -27.148438 L 12.109375 -27.148438 C 13.167969 -27.148438 13.734375 -26.578125 13.734375 -25.519531 L 13.734375 -22.433594 C 13.734375 -22.027344 13.9375 -21.78125 14.386719 -21.78125 L 18.449219 -21.78125 C 18.855469 -21.78125 19.101562 -22.027344 19.101562 -22.433594 L 19.101562 -26.660156 C 19.101562 -30.480469 17.027344 -32.511719 13.25 -32.511719 L 7.882812 -32.511719 C 4.0625 -32.511719 2.03125 -30.480469 2.03125 -26.660156 Z M 2.03125 -5.851562" transform="translate(332.907 1026.504)"/></g></g></g><g fill="#FFF"><g><g><path d="M 21.621094 0 C 22.109375 0 22.269531 -0.242188 22.1875 -0.691406 L 15.441406 -31.941406 C 15.363281 -32.347656 15.117188 -32.511719 14.753906 -32.511719 L 9.101562 -32.511719 C 8.738281 -32.511719 8.492188 -32.347656 8.414062 -31.941406 L 1.667969 -0.691406 C 1.542969 -0.242188 1.746094 0 2.195312 0 L 6.542969 0 C 6.910156 0 7.113281 -0.203125 7.191406 -0.570312 L 8.289062 -6.503906 L 15.523438 -6.503906 L 16.660156 -0.570312 C 16.742188 -0.203125 16.945312 0 17.3125 0 Z M 14.507812 -11.214844 L 9.304688 -11.214844 L 11.90625 -25.398438 Z M 14.507812 -11.214844" transform="translate(357.816 1026.504)"/></g></g></g><g fill="#FFF"><g><g><path d="M 19.019531 -32.511719 C 18.53125 -32.511719 18.246094 -32.265625 18.125 -31.78125 L 13.613281 -11.542969 L 9.101562 -31.78125 C 8.980469 -32.265625 8.695312 -32.511719 8.210938 -32.511719 L 2.84375 -32.511719 C 2.316406 -32.511719 2.03125 -32.226562 2.03125 -31.699219 L 2.03125 -0.8125 C 2.03125 -0.285156 2.316406 0 2.84375 0 L 6.582031 0 C 7.113281 0 7.394531 -0.285156 7.394531 -0.8125 L 7.394531 -19.101562 L 7.679688 -19.101562 L 11.703125 -0.730469 C 11.824219 -0.242188 12.109375 0 12.597656 0 L 14.589844 0 C 15.078125 0 15.363281 -0.242188 15.484375 -0.730469 L 19.507812 -19.101562 L 19.792969 -19.101562 L 19.792969 -0.8125 C 19.792969 -0.285156 20.074219 0 20.605469 0 L 24.382812 0 C 24.910156 0 25.195312 -0.285156 25.195312 -0.8125 L 25.195312 -31.699219 C 25.195312 -32.226562 24.910156 -32.511719 24.382812 -32.511719 Z M 19.019531 -32.511719" transform="translate(385.407 1026.504)"/></g></g></g><g fill="#FFF"><g><g><path d="M 18.246094 -31.859375 C 18.246094 -32.265625 18.085938 -32.511719 17.597656 -32.511719 L 2.640625 -32.511719 C 2.277344 -32.511719 2.03125 -32.265625 2.03125 -31.859375 L 2.03125 -0.648438 C 2.03125 -0.242188 2.277344 0 2.640625 0 L 17.597656 0 C 18.085938 0 18.246094 -0.242188 18.246094 -0.648438 L 18.246094 -4.714844 C 18.246094 -5.160156 18.085938 -5.363281 17.597656 -5.363281 L 7.4375 -5.363281 L 7.4375 -13.574219 L 15.199219 -13.574219 C 15.605469 -13.574219 15.847656 -13.816406 15.847656 -14.265625 L 15.847656 -18.289062 C 15.847656 -18.734375 15.605469 -18.976562 15.199219 -18.976562 L 7.4375 -18.976562 L 7.4375 -27.105469 L 17.597656 -27.105469 C 18.085938 -27.105469 18.246094 -27.390625 18.246094 -27.796875 Z M 18.246094 -31.859375" transform="translate(416.41 1026.504)"/></g></g></g><g fill="#FFF"><g><g><path d="M 7.882812 -32.511719 C 4.105469 -32.511719 2.03125 -30.480469 2.03125 -26.660156 L 2.03125 -17.070312 C 2.03125 -16.296875 2.398438 -15.808594 3.128906 -15.566406 L 12.761719 -12.394531 L 12.761719 -6.988281 C 12.761719 -5.894531 12.191406 -5.363281 11.136719 -5.363281 L 9.183594 -5.363281 C 8.167969 -5.363281 7.558594 -5.894531 7.558594 -6.988281 L 7.558594 -10.117188 C 7.558594 -10.566406 7.355469 -10.769531 6.910156 -10.769531 L 2.683594 -10.769531 C 2.277344 -10.769531 2.03125 -10.566406 2.03125 -10.117188 L 2.03125 -5.851562 C 2.03125 -2.03125 4.105469 0 7.882812 0 L 12.4375 0 C 16.253906 0 18.289062 -2.03125 18.289062 -5.851562 L 18.289062 -15.238281 C 18.289062 -16.011719 17.921875 -16.457031 17.230469 -16.742188 L 7.558594 -19.914062 L 7.558594 -25.519531 C 7.558594 -26.578125 8.167969 -27.148438 9.183594 -27.148438 L 11.136719 -27.148438 C 12.230469 -27.148438 12.761719 -26.578125 12.761719 -25.519531 L 12.761719 -22.351562 C 12.761719 -21.945312 13.003906 -21.703125 13.410156 -21.703125 L 17.636719 -21.703125 C 18.085938 -21.703125 18.289062 -21.945312 18.289062 -22.351562 L 18.289062 -26.660156 C 18.289062 -30.480469 16.253906 -32.511719 12.4375 -32.511719 Z M 7.882812 -32.511719" transform="translate(440.466 1026.504)"/></g></g></g><g fill="#FFF"><g><g><path d="M 2.03125 -12.761719 C 2.03125 -12.230469 2.316406 -11.949219 2.84375 -11.949219 L 9.265625 -11.949219 C 9.792969 -11.949219 10.078125 -12.230469 10.078125 -12.761719 L 10.078125 -16.5 C 10.078125 -17.027344 9.792969 -17.3125 9.265625 -17.3125 L 2.84375 -17.3125 C 2.316406 -17.3125 2.03125 -17.027344 2.03125 -16.5 Z M 2.03125 -12.761719" transform="translate(478.5 1026.504)"/></g></g></g></svg>